<svg viewBox="8 8 16 16"><path d="M23.3928384,8 L8.65181401,8 C8.30083723,8 8,8.3 8,8.65 L8,23.3 C8,23.7 8.30083723,24 8.65181401,24 L16.5237216,24 L16.5237216,18 L14.5181401,18 L14.5181401,15.5 L16.5237216,15.5 L16.5237216,13.5 C16.5237216,11.45 17.8273496,10.4 19.6825126,10.4 C20.5850243,10.4 21.3371173,10.5 21.5376755,10.5 L21.5376755,12.65 L20.2340475,12.65 C19.2312567,12.65 18.980559,13.15 18.980559,13.85 L18.980559,15.5 L21.487536,15.5 L20.9861406,18 L18.980559,18 L19.0306986,24 L23.3426989,24 C23.6936757,24 23.9945129,23.7 23.9945129,23.35 L23.9945129,8.65 C24.0446524,8.3 23.7438152,8 23.3928384,8 L23.3928384,8 Z"></path></svg>